# xmcd CD database file
#
# Track frame offsets:
#	150
#	18380
#	28362
#	47957
#	66847
#	84097
#	99872
#	122102
#	147310
#	162030
#	183602
#	196707
#	217452
#	238862
#	258780
#	281035
#	316195
#
# Disc length: 4571 seconds
#
# Revision: 3
# Processed by: cddbd v1.5.2PL0 Copyright (c) Steve Scherf et al.
# Submitted via: CDex 1.70beta2
#
DISCID=f511d911
DTITLE=Morelenbaum2/Sakamoto - A Day In New York
DYEAR=2003
DGENRE=Acoustic
TTITLE0=Desafinado
TTITLE1=Bim Bom
TTITLE2=Insensatez
TTITLE3=Coracao Vagabundo
TTITLE4=Falando De Amor
TTITLE5=Chora Coracao
TTITLE6=Sabia
TTITLE7=Tango (Versao em Portugues)
TTITLE8=Chega De Saudade
TTITLE9=Samba Do Aviao
TTITLE10=Tema Para Ana
TTITLE11=Fotografia
TTITLE12=Vivo Sonhando
TTITLE13=O Amor Em Paz
TTITLE14=As Praias Desertas
TTITLE15=Insensatez/re-model by alva noto
TTITLE16=[Data Track]
EXTD=YEAR: 2003
EXTT0=
EXTT1=
EXTT2=
EXTT3=
EXTT4=
EXTT5=
EXTT6=
EXTT7=
EXTT8=
EXTT9=
EXTT10=
EXTT11=
EXTT12=
EXTT13=
EXTT14=
EXTT15=
EXTT16=
PLAYORDER=
